<svg version="1.2" xmlns="http://www.w3.org/2000/svg" viewBox="0 0 230 230" width="230" height="230">
	<title>New Project</title>
	<style>
		.s0 { fill: #000000;stroke: #2dff50;stroke-linejoin: round;stroke-width: 6 } 
		.s1 { fill: #fbfefe } 
	</style>
	<path id="Shape 1" class="s0" d="m106.7 18.7c4-3.9 10.3-3.9 14.2 0l90 89.9c3.9 3.9 3.9 10.3 0 14.2l-88.1 88.1c-3.9 3.9-10.3 3.9-14.2 0l-89.9-90c-3.9-3.9-3.9-10.2 0-14.2z"/>
	<path id="D" class="s1" aria-label="D"  d="m113 158h-27.9v-85h27.9q8.7 0 16.2 3.3 7.7 3.3 13.4 9.2 5.8 5.8 9.1 13.5 3.3 7.7 3.3 16.5 0 8.8-3.3 16.5-3.3 7.7-9.1 13.6-5.7 5.8-13.4 9.1-7.5 3.3-16.2 3.3zm-9.9-66.8v48.6h9.9q4.8 0 9.2-1.9 4.3-1.9 7.6-5.2 3.4-3.4 5.3-7.7 1.9-4.5 1.9-9.5 0-5-1.9-9.4-1.9-4.4-5.3-7.7-3.3-3.4-7.6-5.3-4.3-1.9-9.2-1.9z"/>
</svg>