<svg version="1.2" xmlns="http://www.w3.org/2000/svg" viewBox="0 0 230 230" width="230" height="230">
	<title>New Project</title>
	<style>
		.s0 { fill: #000000;stroke: #2dff50;stroke-linejoin: round;stroke-width: 6 } 
		.s1 { fill: #ffffff } 
	</style>
	<path id="Shape 1" class="s0" d="m5 15c0-5.5 4.5-10 10-10h200c5.5 0 10 4.5 10 10v200c0 5.5-4.5 10-10 10h-200c-5.5 0-10-4.5-10-10z"/>
	<path id="D" class="s1" aria-label="D"  d="m84.1 150h-23.2v-70h23.2q7.3 0 13.6 2.8 6.3 2.7 11.1 7.5 4.9 4.8 7.6 11.1 2.7 6.4 2.7 13.6 0 7.3-2.7 13.6-2.7 6.3-7.6 11.2-4.8 4.8-11.1 7.5-6.3 2.7-13.6 2.7zm-8.2-55v40h8.2q4.1 0 7.7-1.6 3.6-1.5 6.4-4.2 2.8-2.8 4.3-6.4 1.6-3.6 1.6-7.8 0-4.2-1.6-7.7-1.5-3.6-4.3-6.4-2.8-2.8-6.4-4.3-3.6-1.6-7.7-1.6z"/>
	<path id="N" class="s1" aria-label="N"  d="m125 150h-15v-70h16.2l25.6 42.9v-42.9h15v70h-16.2l-25.6-42.9z"/>
</svg>