<?xml version="1.0" standalone="no"?>
<!DOCTYPE svg PUBLIC "-//W3C//DTD SVG 20010904//EN"
 "http://www.w3.org/TR/2001/REC-SVG-20010904/DTD/svg10.dtd">
<svg version="1.0" xmlns="http://www.w3.org/2000/svg"
 width="700.000000pt" height="700.000000pt" viewBox="0 0 700.000000 700.000000"
 preserveAspectRatio="xMidYMid meet">
<metadata>
Created by potrace 1.14, written by Peter Selinger 2001-2017
</metadata>
<g transform="translate(0.000000,700.000000) scale(0.100000,-0.100000)"
fill="#000000" stroke="none">
<path d="M3390 6418 c-27 -9 -336 -311 -1408 -1382 -818 -817 -1379 -1385
-1389 -1406 -9 -19 -18 -56 -21 -81 -10 -102 -83 -23 1441 -1546 1396 -1395
1402 -1401 1455 -1413 41 -9 63 -9 105 0 52 12 58 18 1435 1394 1351 1349
1383 1382 1399 1435 13 46 13 63 3 110 l-12 56 -1396 1399 c-1133 1133 -1406
1403 -1447 1422 -53 25 -106 29 -165 12z m310 -1666 c263 -63 447 -166 635
-356 117 -118 180 -205 246 -336 316 -631 61 -1407 -567 -1727 -109 -56 -209
-92 -324 -119 -64 -14 -149 -18 -587 -21 l-513 -5 0 1297 0 1297 513 -5 c474
-4 518 -6 597 -25z"/>
<path d="M3140 3485 l0 -735 203 0 c233 0 295 12 430 82 143 75 293 240 347
386 85 226 58 472 -75 672 -97 146 -258 263 -425 309 -64 18 -103 21 -277 21
l-203 0 0 -735z"/>
</g>
</svg>
